<svg width="37" height="45" viewBox="0 0 37 45" fill="none" xmlns="http://www.w3.org/2000/svg">
<path d="M35.5 18.7509C35.5 32.1145 18.25 43.5691 18.25 43.5691C18.25 43.5691 1 32.1145 1 18.7509C1 14.194 2.81741 9.82375 6.05241 6.60153C9.28741 3.37931 13.675 1.56909 18.25 1.56909C22.825 1.56909 27.2126 3.37931 30.4476 6.60153C33.6826 9.82375 35.5 14.194 35.5 18.7509Z" stroke="white" stroke-width="1.81818" stroke-linecap="round" stroke-linejoin="round"/>
<path d="M17.5 25.5691C20.8137 25.5691 23.5 22.8828 23.5 19.5691C23.5 16.2554 20.8137 13.5691 17.5 13.5691C14.1863 13.5691 11.5 16.2554 11.5 19.5691C11.5 22.8828 14.1863 25.5691 17.5 25.5691Z" stroke="white" stroke-width="1.81818" stroke-linecap="round" stroke-linejoin="round"/>
</svg>
